Coordinates
version=1
nRows=60
nColumns=12
inDegrees=yes

Units are S.I. units (second, meters, Newtons, ...)
Angles are in degrees

endheader
time	SC_y	SC_z	SC_x	AC_y	AC_z	AC_x	GH_y	GH_z	GH_yy	EL_x	PS_y
       0.0              -37.69          10.15          30.17          58.68         -14.77          1.637         -121.5          52.87          61.51          36.55          81.78
  0.003895              -37.69          10.15          30.17          58.68         -14.77          1.637         -121.5          52.86          61.48          36.56          81.78
  0.007791              -37.69          10.16          30.17          58.68         -14.77          1.638         -121.5          52.85          61.45          36.57          81.78
   0.01169              -37.69          10.16          30.17          58.68         -14.77          1.638         -121.5          52.84          61.41          36.58          81.79
   0.01558              -37.69          10.16          30.17          58.67         -14.77          1.639         -121.5          52.83          61.37          36.59          81.79
   0.01948              -37.69          10.17          30.17          58.67         -14.77           1.64         -121.5          52.81          61.33           36.6           81.8
   0.02337              -37.69          10.17          30.18          58.67         -14.77           1.64         -121.5           52.8          61.29          36.62          81.81
   0.02727              -37.69          10.17          30.18          58.67         -14.77          1.641         -121.5          52.79          61.24          36.63          81.81
   0.03116              -37.69          10.18          30.18          58.67         -14.77          1.642         -121.5          52.77          61.19          36.65          81.82
   0.03506              -37.69          10.18          30.19          58.67         -14.77          1.643         -121.5          52.76          61.13          36.66          81.83
   0.03895              -37.69          10.19          30.19          58.67         -14.77          1.644         -121.5          52.74          61.08          36.68          81.83
   0.04285              -37.69          10.19          30.19          58.66         -14.78          1.645         -121.5          52.72          61.01           36.7          81.84
   0.04674              -37.69           10.2           30.2          58.66         -14.78          1.646         -121.5           52.7          60.95          36.72          81.85
   0.05064              -37.69           10.2           30.2          58.66         -14.78          1.647         -121.5          52.68          60.87          36.74          81.86
   0.05453              -37.69          10.21           30.2          58.66         -14.78          1.648         -121.5          52.66           60.8          36.77          81.87
   0.05843              -37.68          10.22          30.21          58.66         -14.78           1.65         -121.5          52.63          60.71          36.79          81.88
   0.06233              -37.68          10.22          30.21          58.65         -14.78          1.651         -121.5          52.61          60.62          36.82          81.89
   0.06622              -37.68          10.23          30.22          58.65         -14.78          1.653         -121.5          52.58          60.52          36.85          81.91
   0.07012              -37.68          10.24          30.22          58.65         -14.79          1.655         -121.5          52.55          60.41          36.89          81.92
   0.07401              -37.68          10.25          30.23          58.64         -14.79          1.657         -121.5          52.51          60.28          36.92          81.94
   0.07791              -37.68          10.26          30.24          58.64         -14.79          1.659         -121.5          52.47          60.15          36.96          81.96
    0.0818              -37.68          10.27          30.24          58.63         -14.79          1.661         -121.5          52.43          60.01          37.01          81.98
    0.0857              -37.68          10.29          30.25          58.63          -14.8          1.664         -121.5          52.38          59.85          37.06           82.0
   0.08959              -37.68           10.3          30.26          58.62          -14.8          1.667         -121.5          52.33          59.67          37.11          82.02
   0.09349              -37.68          10.32          30.27          58.62          -14.8           1.67         -121.5          52.27          59.47          37.17          82.05
   0.09738              -37.68          10.33          30.28          58.61         -14.81          1.673         -121.5          52.21          59.25          37.24          82.08
    0.1013              -37.68          10.35           30.3           58.6         -14.81          1.677         -121.5          52.13           59.0          37.32          82.11
    0.1052              -37.68          10.38          30.31           58.6         -14.81          1.682         -121.5          52.05          58.72           37.4          82.15
    0.1091              -37.68           10.4          30.33          58.59         -14.82          1.687         -121.5          51.96           58.4           37.5          82.19
     0.113              -37.68          10.43          30.35          58.58         -14.83          1.693         -121.5          51.86          58.05          37.61          82.24
    0.1169              -37.67          10.46          30.37          58.57         -14.83            1.7         -121.5          51.74          57.64          37.73          82.29
    0.1208              -37.67           10.5          30.39          58.55         -14.84          1.707         -121.5           51.6          57.17          37.88          82.35
    0.1247              -37.67          10.54          30.42          58.54         -14.85          1.716         -121.5          51.44          56.63          38.04          82.43
    0.1285              -37.67          10.59          30.46          58.52         -14.86          1.726         -121.5          51.26           56.0          38.24          82.51
    0.1324              -37.66          10.65          30.49           58.5         -14.87          1.738         -121.5          51.04          55.26          38.46          82.61
    0.1363              -37.66          10.72          30.54          58.47         -14.89          1.752         -121.5          50.79          54.39          38.73          82.72
    0.1402              -37.66          10.81           30.6          58.44          -14.9          1.769         -121.5          50.49          53.36          39.05          82.86
    0.1441              -37.65          10.91          30.66           58.4         -14.92          1.789         -121.5          50.13          52.12          39.42          83.03
     0.148              -37.65          11.02          30.74          58.36         -14.95          1.813         -121.5          49.69          50.63          39.88          83.22
    0.1519              -37.64          11.17          30.84          58.31         -14.98          1.843         -121.5          49.16           48.8          40.44          83.47
    0.1558              -37.63          11.35          30.95          58.24         -15.02          1.879         -121.5           48.5          46.54          41.14          83.77
    0.1597              -37.62          11.58           31.1          58.16         -15.06          1.925         -121.5          47.68          43.73           42.0          84.14
    0.1636              -37.61          11.86          31.29          58.05         -15.12          1.983         -121.4          46.65          40.19          43.08          84.61
    0.1675              -37.59          12.22          31.53          57.92          -15.2          2.056         -121.4          45.34          35.68          44.47          85.21
    0.1714              -37.57          12.69          31.83          57.75          -15.3          2.149         -121.4          43.65          29.92          46.23          85.98
    0.1753              -37.54          13.28          32.22          57.54         -15.42          2.269         -121.4           41.5          22.52           48.5          86.97
    0.1792              -37.51          14.04          32.72          57.26         -15.58          2.423         -121.4          38.74          13.07           51.4          88.22
    0.1831              -37.46          14.99          33.35          56.91         -15.78          2.615         -121.3          35.28          1.182          55.04          89.81
     0.187              -37.41          16.15          34.11          56.49         -16.02           2.85         -121.3          31.05          -13.3          59.48          91.73
    0.1909              -37.35           17.5          34.99           56.0          -16.3          3.123         -121.2          26.16         -30.09          64.63          93.97
    0.1948              -37.28          18.96          35.95          55.47          -16.6          3.417         -121.2          20.86         -48.26           70.2          96.39
    0.1987              -37.21          20.41          36.91          54.94         -16.91          3.712         -121.1          15.56         -66.44          75.78          98.81
    0.2026              -37.15          21.76           37.8          54.45         -17.19          3.985         -121.1          10.66         -83.23          80.92          101.0
    0.2065               -37.1          22.92          38.56          54.02         -17.43          4.219         -121.0           6.44         -97.71          85.36          103.0
    0.2103              -37.06          23.87          39.19          53.67         -17.63          4.412         -121.0          2.974         -109.6          89.01          104.6
    0.2142              -37.02          24.63          39.68           53.4         -17.78          4.566         -120.9         0.2182         -119.0          91.91          105.8
    0.2181              -36.99          25.22          40.07          53.18         -17.91          4.686         -120.9         -1.939         -126.4          94.17          106.8
     0.222              -36.97          25.69          40.38          53.01          -18.0          4.779         -120.9         -3.621         -132.2          95.94          107.6
    0.2259              -36.96          26.05          40.62          52.88         -18.08          4.852         -120.9         -4.934         -136.7          97.32          108.2
    0.2298              -36.94          26.33           40.8          52.78         -18.14           4.91         -120.9         -5.967         -140.3          98.41          108.6
